<svg width="80" height="30" viewBox="0 0 80 30" fill="none" xmlns="http://www.w3.org/2000/svg">
<path d="M0 4.6C0 3.71634 0.58203 3 1.3 3H3.9C4.61797 3 5.2 3.71634 5.2 4.6V11C5.2 11.8837 4.61797 12.6 3.9 12.6H1.3C0.58203 12.6 0 11.8837 0 11V4.6Z" fill="white"/>
<path d="M9.1 4.6C9.1 3.71634 9.68203 3 10.4 3H15.6C16.318 3 16.9 3.71634 16.9 4.6V11C16.9 11.8837 16.318 12.6 15.6 12.6H10.4C9.68203 12.6 9.1 11.8837 9.1 11V4.6Z" fill="white"/>
<path d="M20.8 4.6C20.8 3.71634 21.382 3 22.1 3H24.7C25.418 3 26 3.71634 26 4.6V11C26 11.8837 25.418 12.6 24.7 12.6H22.1C21.382 12.6 20.8 11.8837 20.8 11V4.6Z" fill="#477BFF"/>
<path d="M0 19C0 18.1163 0.58203 17.4 1.3 17.4H3.9C4.61797 17.4 5.2 18.1163 5.2 19V25.4C5.2 26.2837 4.61797 27 3.9 27H1.3C0.58203 27 0 26.2837 0 25.4V19Z" fill="white"/>
<path d="M9.1 19C9.1 18.1163 9.68203 17.4 10.4 17.4H15.6C16.318 17.4 16.9 18.1163 16.9 19V25.4C16.9 26.2837 16.318 27 15.6 27H10.4C9.68203 27 9.1 26.2837 9.1 25.4V19Z" fill="white"/>
<path d="M20.8 19C20.8 18.1163 21.382 17.4 22.1 17.4H24.7C25.418 17.4 26 18.1163 26 19V25.4C26 26.2837 25.418 27 24.7 27H22.1C21.382 27 20.8 26.2837 20.8 25.4V19Z" fill="#477BFF"/>
<path d="M39.008 15.192C38.112 15.192 37.2533 15.0747 36.432 14.84C35.6107 14.5947 34.9493 14.28 34.448 13.896L35.328 11.944C35.808 12.2853 36.3733 12.568 37.024 12.792C37.6853 13.0053 38.352 13.112 39.024 13.112C39.536 13.112 39.9467 13.064 40.256 12.968C40.576 12.8613 40.8107 12.7173 40.96 12.536C41.1093 12.3547 41.184 12.1467 41.184 11.912C41.184 11.6133 41.0667 11.3787 40.832 11.208C40.5973 11.0267 40.288 10.8827 39.904 10.776C39.52 10.6587 39.0933 10.552 38.624 10.456C38.1653 10.3493 37.7013 10.2213 37.232 10.072C36.7733 9.92267 36.352 9.73067 35.968 9.496C35.584 9.26133 35.2693 8.952 35.024 8.568C34.7893 8.184 34.672 7.69333 34.672 7.096C34.672 6.456 34.8427 5.87467 35.184 5.352C35.536 4.81867 36.0587 4.39733 36.752 4.088C37.456 3.768 38.336 3.608 39.392 3.608C40.096 3.608 40.7893 3.69333 41.472 3.864C42.1547 4.024 42.7573 4.26933 43.28 4.6L42.48 6.568C41.9573 6.26933 41.4347 6.05067 40.912 5.912C40.3893 5.76267 39.8773 5.688 39.376 5.688C38.8747 5.688 38.464 5.74667 38.144 5.864C37.824 5.98133 37.5947 6.136 37.456 6.328C37.3173 6.50933 37.248 6.72267 37.248 6.968C37.248 7.256 37.3653 7.49067 37.6 7.672C37.8347 7.84267 38.144 7.98133 38.528 8.088C38.912 8.19467 39.3333 8.30133 39.792 8.408C40.2613 8.51467 40.7253 8.63733 41.184 8.776C41.6533 8.91467 42.08 9.10133 42.464 9.336C42.848 9.57067 43.1573 9.88 43.392 10.264C43.6373 10.648 43.76 11.1333 43.76 11.72C43.76 12.3493 43.584 12.9253 43.232 13.448C42.88 13.9707 42.352 14.392 41.648 14.712C40.9547 15.032 40.0747 15.192 39.008 15.192ZM44.0591 15L49.0511 3.8H51.6111L56.6191 15H53.8991L49.8031 5.112H50.8271L46.7151 15H44.0591ZM46.5551 12.6L47.2431 10.632H53.0031L53.7071 12.6H46.5551ZM63.0329 15.192C62.1475 15.192 61.3315 15.0533 60.5849 14.776C59.8489 14.488 59.2035 14.0827 58.6489 13.56C58.1049 13.0373 57.6782 12.424 57.3689 11.72C57.0702 11.016 56.9209 10.2427 56.9209 9.4C56.9209 8.55733 57.0702 7.784 57.3689 7.08C57.6782 6.376 58.1102 5.76267 58.6649 5.24C59.2195 4.71733 59.8702 4.31733 60.6169 4.04C61.3635 3.752 62.1849 3.608 63.0809 3.608C64.0729 3.608 64.9635 3.77333 65.7529 4.104C66.5529 4.43467 67.2249 4.91467 67.7689 5.544L66.1049 7.08C65.6995 6.65333 65.2569 6.33867 64.7769 6.136C64.2969 5.92267 63.7742 5.816 63.2089 5.816C62.6649 5.816 62.1689 5.90133 61.7209 6.072C61.2729 6.24267 60.8835 6.488 60.5529 6.808C60.2329 7.128 59.9822 7.50667 59.8009 7.944C59.6302 8.38133 59.5449 8.86667 59.5449 9.4C59.5449 9.92267 59.6302 10.4027 59.8009 10.84C59.9822 11.2773 60.2329 11.6613 60.5529 11.992C60.8835 12.312 61.2675 12.5573 61.7049 12.728C62.1529 12.8987 62.6435 12.984 63.1769 12.984C63.6889 12.984 64.1849 12.904 64.6649 12.744C65.1555 12.5733 65.6302 12.2907 66.0889 11.896L67.5609 13.768C66.9529 14.2267 66.2435 14.5787 65.4329 14.824C64.6329 15.0693 63.8329 15.192 63.0329 15.192ZM65.1929 13.432V9.224H67.5609V13.768L65.1929 13.432ZM72.3526 8.312H77.7446V10.328H72.3526V8.312ZM72.5446 12.92H78.6406V15H69.9686V3.8H78.4326V5.88H72.5446V12.92Z" fill="#477BFF"/>
<path d="M36.44 28V21.87H34.04V21H39.83V21.87H37.43V28H36.44ZM41.4191 28V21H44.1491C44.7625 21 45.2858 21.0967 45.7191 21.29C46.1525 21.4833 46.4858 21.7633 46.7191 22.13C46.9525 22.4967 47.0691 22.9333 47.0691 23.44C47.0691 23.9467 46.9525 24.3833 46.7191 24.75C46.4858 25.11 46.1525 25.3867 45.7191 25.58C45.2858 25.7733 44.7625 25.87 44.1491 25.87H41.9691L42.4191 25.41V28H41.4191ZM46.0991 28L44.3191 25.46H45.3891L47.1891 28H46.0991ZM42.4191 25.51L41.9691 25.02H44.1191C44.7591 25.02 45.2425 24.8833 45.5691 24.61C45.9025 24.33 46.0691 23.94 46.0691 23.44C46.0691 22.94 45.9025 22.5533 45.5691 22.28C45.2425 22.0067 44.7591 21.87 44.1191 21.87H41.9691L42.4191 21.37V25.51ZM48.1248 28L51.2948 21H52.2848L55.4648 28H54.4148L51.5848 21.56H51.9848L49.1548 28H48.1248ZM49.4748 26.25L49.7448 25.45H53.6848L53.9748 26.25H49.4748ZM57.009 28V21H59.959C60.7057 21 61.3623 21.1467 61.929 21.44C62.5023 21.7333 62.9457 22.1433 63.259 22.67C63.579 23.1967 63.739 23.8067 63.739 24.5C63.739 25.1933 63.579 25.8033 63.259 26.33C62.9457 26.8567 62.5023 27.2667 61.929 27.56C61.3623 27.8533 60.7057 28 59.959 28H57.009ZM58.009 27.13H59.899C60.479 27.13 60.979 27.02 61.399 26.8C61.8257 26.58 62.1557 26.2733 62.389 25.88C62.6223 25.48 62.739 25.02 62.739 24.5C62.739 23.9733 62.6223 23.5133 62.389 23.12C62.1557 22.7267 61.8257 22.42 61.399 22.2C60.979 21.98 60.479 21.87 59.899 21.87H58.009V27.13ZM66.6807 24.02H70.2807V24.87H66.6807V24.02ZM66.7707 27.13H70.8507V28H65.7707V21H70.7107V21.87H66.7707V27.13ZM72.9699 28V21H75.6999C76.3133 21 76.8366 21.0967 77.2699 21.29C77.7033 21.4833 78.0366 21.7633 78.2699 22.13C78.5033 22.4967 78.6199 22.9333 78.6199 23.44C78.6199 23.9467 78.5033 24.3833 78.2699 24.75C78.0366 25.11 77.7033 25.3867 77.2699 25.58C76.8366 25.7733 76.3133 25.87 75.6999 25.87H73.5199L73.9699 25.41V28H72.9699ZM77.6499 28L75.8699 25.46H76.9399L78.7399 28H77.6499ZM73.9699 25.51L73.5199 25.02H75.6699C76.3099 25.02 76.7933 24.8833 77.1199 24.61C77.4533 24.33 77.6199 23.94 77.6199 23.44C77.6199 22.94 77.4533 22.5533 77.1199 22.28C76.7933 22.0067 76.3099 21.87 75.6699 21.87H73.5199L73.9699 21.37V25.51Z" fill="white"/>
</svg>
