<svg width="20" height="20" viewBox="0 0 20 20" fill="none" xmlns="http://www.w3.org/2000/svg">
<path d="M17.5 9.79166H2.50001C1.70001 9.79166 1.04167 9.13332 1.04167 8.33332V5.56665C1.04167 4.99998 1.43332 4.42499 1.95832 4.21665L9.45832 1.21667C9.77499 1.09167 10.225 1.09167 10.5417 1.21667L18.0417 4.21665C18.5667 4.42499 18.9583 5.00832 18.9583 5.56665V8.33332C18.9583 9.13332 18.3 9.79166 17.5 9.79166ZM10 2.36668C9.96667 2.36668 9.93336 2.36664 9.91669 2.37497L2.42498 5.375C2.37498 5.4 2.29167 5.50832 2.29167 5.56665V8.33332C2.29167 8.44999 2.38334 8.54166 2.50001 8.54166H17.5C17.6167 8.54166 17.7083 8.44999 17.7083 8.33332V5.56665C17.7083 5.50832 17.6334 5.4 17.575 5.375L10.075 2.37497C10.0584 2.36664 10.0333 2.36668 10 2.36668Z" fill="#45464F"/>
<path d="M18.3333 18.9583H1.66667C1.32501 18.9583 1.04167 18.675 1.04167 18.3333V15.8333C1.04167 15.0333 1.70001 14.375 2.50001 14.375H17.5C18.3 14.375 18.9583 15.0333 18.9583 15.8333V18.3333C18.9583 18.675 18.675 18.9583 18.3333 18.9583ZM2.29167 17.7083H17.7083V15.8333C17.7083 15.7167 17.6167 15.625 17.5 15.625H2.50001C2.38334 15.625 2.29167 15.7167 2.29167 15.8333V17.7083Z" fill="#45464F"/>
<path d="M3.33333 15.625C2.99166 15.625 2.70833 15.3417 2.70833 15V9.16669C2.70833 8.82502 2.99166 8.54169 3.33333 8.54169C3.67499 8.54169 3.95833 8.82502 3.95833 9.16669V15C3.95833 15.3417 3.67499 15.625 3.33333 15.625Z" fill="#45464F"/>
<path d="M6.66667 15.625C6.32501 15.625 6.04167 15.3417 6.04167 15V9.16669C6.04167 8.82502 6.32501 8.54169 6.66667 8.54169C7.00834 8.54169 7.29167 8.82502 7.29167 9.16669V15C7.29167 15.3417 7.00834 15.625 6.66667 15.625Z" fill="#45464F"/>
<path d="M10 15.625C9.65833 15.625 9.375 15.3417 9.375 15V9.16669C9.375 8.82502 9.65833 8.54169 10 8.54169C10.3417 8.54169 10.625 8.82502 10.625 9.16669V15C10.625 15.3417 10.3417 15.625 10 15.625Z" fill="#45464F"/>
<path d="M13.3333 15.625C12.9917 15.625 12.7083 15.3417 12.7083 15V9.16669C12.7083 8.82502 12.9917 8.54169 13.3333 8.54169C13.675 8.54169 13.9583 8.82502 13.9583 9.16669V15C13.9583 15.3417 13.675 15.625 13.3333 15.625Z" fill="#45464F"/>
<path d="M16.6667 15.625C16.325 15.625 16.0417 15.3417 16.0417 15V9.16669C16.0417 8.82502 16.325 8.54169 16.6667 8.54169C17.0083 8.54169 17.2917 8.82502 17.2917 9.16669V15C17.2917 15.3417 17.0083 15.625 16.6667 15.625Z" fill="#45464F"/>
<path d="M19.1667 18.9583H0.833328C0.491662 18.9583 0.208328 18.675 0.208328 18.3333C0.208328 17.9916 0.491662 17.7083 0.833328 17.7083H19.1667C19.5083 17.7083 19.7917 17.9916 19.7917 18.3333C19.7917 18.675 19.5083 18.9583 19.1667 18.9583Z" fill="#45464F"/>
<path d="M10 7.70831C8.96667 7.70831 8.125 6.86665 8.125 5.83331C8.125 4.79998 8.96667 3.95831 10 3.95831C11.0333 3.95831 11.875 4.79998 11.875 5.83331C11.875 6.86665 11.0333 7.70831 10 7.70831ZM10 5.20831C9.65833 5.20831 9.375 5.49165 9.375 5.83331C9.375 6.17498 9.65833 6.45831 10 6.45831C10.3417 6.45831 10.625 6.17498 10.625 5.83331C10.625 5.49165 10.3417 5.20831 10 5.20831Z" fill="#45464F"/>
</svg>
