<svg width="20" height="20" viewBox="0 0 20 20" fill="none" xmlns="http://www.w3.org/2000/svg">
<path d="M12.5 18.9583H7.5C2.975 18.9583 1.04167 17.025 1.04167 12.5V7.49996C1.04167 2.97496 2.975 1.04163 7.5 1.04163H12.5C17.025 1.04163 18.9583 2.97496 18.9583 7.49996V12.5C18.9583 17.025 17.025 18.9583 12.5 18.9583ZM7.5 2.29163C3.65833 2.29163 2.29167 3.65829 2.29167 7.49996V12.5C2.29167 16.3416 3.65833 17.7083 7.5 17.7083H12.5C16.3417 17.7083 17.7083 16.3416 17.7083 12.5V7.49996C17.7083 3.65829 16.3417 2.29163 12.5 2.29163H7.5Z" fill="#1B1B21"/>
<path d="M10.0001 15.7917C9.8001 15.7917 9.60011 15.7417 9.43344 15.65C8.46677 15.125 6.75844 14.5583 5.68344 14.4166L5.5251 14.3917C4.70844 14.2917 4.05843 13.5583 4.05843 12.7167V6.29999C4.05843 5.82499 4.25845 5.36666 4.60012 5.04999C4.95012 4.73332 5.4001 4.575 5.88343 4.61667C7.1001 4.71667 8.86678 5.3 9.90845 5.95L9.99176 6L10.0251 5.975C11.0751 5.31667 12.8418 4.725 14.0668 4.61667C14.0834 4.61667 14.1334 4.61667 14.1501 4.61667C14.5834 4.575 15.0501 4.74166 15.3917 5.04999C15.7417 5.36666 15.9334 5.80832 15.9334 6.29165V12.7C15.9334 13.5333 15.2834 14.2667 14.4584 14.375L14.2834 14.4C13.2168 14.5417 11.5001 15.1083 10.5501 15.6333C10.3917 15.75 10.2001 15.7917 10.0001 15.7917ZM5.74178 5.87498C5.62511 5.87498 5.52508 5.91665 5.45008 5.98332C5.35842 6.06665 5.31677 6.18333 5.31677 6.30833V12.725C5.31677 12.925 5.50011 13.1333 5.69178 13.1583L5.85012 13.1833C7.06678 13.35 8.93345 13.9583 10.0168 14.55C11.0251 13.9667 12.9001 13.3417 14.1251 13.1833L14.3084 13.1583C14.5001 13.1333 14.6834 12.925 14.6834 12.725V6.31665C14.6834 6.18331 14.6335 6.07499 14.5501 5.99166C14.4585 5.90833 14.3418 5.87499 14.2084 5.88332C14.1918 5.88332 14.1418 5.88332 14.1251 5.88332C13.1584 5.96666 11.5668 6.49999 10.7001 7.04999L10.6168 7.09998C10.2501 7.32498 9.73344 7.32499 9.38344 7.10832L9.25842 7.03333C8.38342 6.48333 6.79177 5.95832 5.78344 5.87498C5.76677 5.87498 5.75845 5.87498 5.74178 5.87498Z" fill="#1B1B21"/>
<path d="M10 15.3417C9.65833 15.3417 9.375 15.0583 9.375 14.7167V6.75C9.375 6.40833 9.65833 6.125 10 6.125C10.3417 6.125 10.625 6.40833 10.625 6.75V14.7167C10.625 15.0667 10.3417 15.3417 10 15.3417Z" fill="#1B1B21"/>
</svg>
