<svg width="21" height="22" viewBox="0 0 21 22" fill="none" xmlns="http://www.w3.org/2000/svg">
<path d="M15.3967 10.9625L13.5904 9.15631L15.0101 7.73674L15.9757 8.7024L15.3967 10.9625ZM15.0101 6.03321L13.5904 4.61364L15.3967 2.80748L15.9757 5.06767L15.0101 6.03321ZM12.2849 1.37666L14.545 1.95561L12.7387 3.7619L11.3192 2.34232L12.2849 1.37666ZM9.61569 2.34237L8.19608 3.7619L6.38992 1.95569L8.65003 1.37666L9.61569 2.34237ZM5.53801 2.80731L7.34434 4.61368L5.92481 6.03321L4.95897 5.06738L5.53801 2.80731ZM5.92481 7.73665L7.34434 9.15618L5.53801 10.9625L4.95897 8.70244L5.92481 7.73665ZM8.64994 12.3933L6.38975 11.8143L8.19608 10.008L9.61565 11.4276L8.64994 12.3933ZM11.887 9.15627L10.4674 10.5758L9.04778 9.15627L10.4674 7.73665L11.887 9.15627ZM12.7387 5.46534L14.1583 6.88495L12.7387 8.30452L11.3191 6.88495L12.7387 5.46534ZM9.61565 6.88495L8.19608 8.30452L6.77655 6.88495L8.19608 5.46542L9.61565 6.88495ZM9.04786 4.61368L10.4674 3.19411L11.887 4.61364L10.4674 6.03321L9.04786 4.61368ZM11.3191 11.4276L12.7387 10.0081L14.5449 11.8143L12.2848 12.3932L11.3191 11.4276ZM16.2521 12.6697L17.3523 8.37549L15.8618 6.88499L17.3522 5.39437L16.2521 1.10013L11.9578 0L10.4674 1.49058L8.97673 4.15019e-05L4.68253 1.10026L3.5824 5.39445L5.07306 6.88495L3.5824 8.37558L4.68253 12.6698L8.97681 13.7699L10.4674 12.2793L11.9579 13.7699L16.2521 12.6697ZM20.3052 17.1406C20.1301 16.8929 19.9211 16.6947 19.6789 16.5451C19.2816 16.2973 18.74 16.1734 18.0541 16.1734H16.3214V21.3331H18.3482C19.0802 21.3331 19.6684 21.0961 20.1119 20.6217C20.5554 20.1472 20.777 19.5181 20.777 18.7341C20.777 18.1102 20.6196 17.5792 20.3052 17.1406ZM18.2013 20.1653H17.6364V17.3416H18.209C18.6113 17.3416 18.9204 17.4661 19.137 17.7147C19.3538 17.9636 19.4619 18.3164 19.4619 18.7725C19.4619 19.7012 19.0416 20.1653 18.2013 20.1653ZM13.885 21.3333H15.2V16.1737H13.885V21.3333ZM10.1332 16.1736L8.06796 21.3333H9.48347L9.75422 20.5831H11.5486L11.7961 21.3333H13.2276L11.1774 16.1736H10.1332ZM10.1178 19.5389L10.6593 17.7751L11.1928 19.5389H10.1178ZM6.03354 16.1736H4.71855V21.3333H7.55761V20.1651H6.03354V16.1736ZM3.27213 16.5604C2.96261 16.3026 2.434 16.1738 1.6863 16.1738H0V21.3332H1.26095V19.7167H1.82554C2.51149 19.7167 3.01424 19.567 3.33389 19.2677C3.69466 18.9327 3.87532 18.4868 3.87532 17.9296C3.87532 17.3521 3.67437 16.8957 3.27213 16.5604ZM1.7945 18.5485H1.26095V17.3417H1.74038C2.32307 17.3417 2.61441 17.5442 2.61441 17.9489C2.61441 18.3488 2.3412 18.5485 1.7945 18.5485Z" fill="#45464F"/>
</svg>
