<svg width="20" height="20" viewBox="0 0 20 20" fill="none" xmlns="http://www.w3.org/2000/svg">
<path d="M15.0833 14.7917H4.91666C2.98333 14.7917 1.875 13.6834 1.875 11.75V1.66669C1.875 1.32502 2.15833 1.04169 2.5 1.04169H17.5C17.8417 1.04169 18.125 1.32502 18.125 1.66669V11.75C18.125 13.6834 17.0167 14.7917 15.0833 14.7917ZM3.125 2.29169V11.75C3.125 12.9917 3.67499 13.5417 4.91666 13.5417H15.075C16.3167 13.5417 16.8667 12.9917 16.8667 11.75V2.29169H3.125Z" fill="#1B1B21"/>
<path d="M18.3333 2.29169H1.66667C1.325 2.29169 1.04167 2.00835 1.04167 1.66669C1.04167 1.32502 1.325 1.04169 1.66667 1.04169H18.3333C18.675 1.04169 18.9583 1.32502 18.9583 1.66669C18.9583 2.00835 18.675 2.29169 18.3333 2.29169Z" fill="#1B1B21"/>
<path d="M6.66689 18.9584C6.43355 18.9584 6.21688 18.8334 6.10854 18.6167C5.95021 18.3084 6.07523 17.9333 6.3919 17.775L9.37522 16.2834V14.1667C9.37522 13.825 9.65855 13.5417 10.0002 13.5417C10.3419 13.5417 10.6252 13.825 10.6252 14.1667V16.6667C10.6252 16.9 10.4919 17.1167 10.2752 17.225L6.94188 18.8917C6.85854 18.9334 6.75855 18.9584 6.66689 18.9584Z" fill="#1B1B21"/>
<path d="M13.3333 18.9583C13.2416 18.9583 13.1416 18.9333 13.0583 18.8917L9.72497 17.225C9.41663 17.0667 9.29161 16.6916 9.44161 16.3833C9.59995 16.075 9.97495 15.95 10.2833 16.1L13.6166 17.7667C13.925 17.925 14.05 18.3 13.9 18.6083C13.7833 18.8333 13.5583 18.9583 13.3333 18.9583Z" fill="#1B1B21"/>
<path d="M6.24994 9.79169C6.07494 9.79169 5.89162 9.7167 5.76662 9.5667C5.54162 9.30003 5.58326 8.90837 5.84993 8.68337L8.47495 6.4917C8.71661 6.2917 9.02493 6.20836 9.3166 6.25836C9.6166 6.30836 9.87494 6.49168 10.0333 6.75834L10.9083 8.21668L13.3499 6.18337C13.6166 5.9667 14.0083 6.00001 14.2333 6.26668C14.4583 6.53335 14.4166 6.92501 14.1499 7.15001L11.5249 9.34168C11.2833 9.54168 10.9749 9.62501 10.6833 9.57501C10.3833 9.52501 10.1249 9.3417 9.9666 9.07503L9.09161 7.6167L6.64995 9.65001C6.53328 9.74168 6.3916 9.79169 6.24994 9.79169Z" fill="#1B1B21"/>
</svg>
