<svg width="20" height="20" viewBox="0 0 20 20" fill="none" xmlns="http://www.w3.org/2000/svg">
<path d="M6.66667 18.5999C6.43333 18.5999 6.19165 18.5416 5.97499 18.425C5.49999 18.175 5.20833 17.6749 5.20833 17.1416V15.9583C2.69167 15.7 1.04167 13.8499 1.04167 11.1999V6.19999C1.04167 3.33333 2.96667 1.40833 5.83333 1.40833H14.1667C17.0333 1.40833 18.9583 3.33333 18.9583 6.19999V11.1999C18.9583 14.0666 17.0333 15.9916 14.1667 15.9916H11.025L7.47498 18.3583C7.23331 18.5167 6.95 18.5999 6.66667 18.5999ZM5.83333 2.64998C3.68333 2.64998 2.29167 4.04165 2.29167 6.19165V11.1917C2.29167 13.3417 3.68333 14.7334 5.83333 14.7334C6.175 14.7334 6.45833 15.0167 6.45833 15.3584V17.1334C6.45833 17.2417 6.52501 17.2917 6.56667 17.3167C6.60834 17.3417 6.69168 17.3667 6.78335 17.3083L10.4917 14.8417C10.5917 14.775 10.7167 14.7334 10.8417 14.7334H14.175C16.325 14.7334 17.7167 13.3417 17.7167 11.1917V6.19165C17.7167 4.04165 16.325 2.64998 14.175 2.64998H5.83333Z" fill="#1B1B21"/>
<path d="M9.99985 10.0917C9.65818 10.0917 9.37485 9.80834 9.37485 9.46667V9.29171C9.37485 8.32504 10.0832 7.85003 10.3498 7.6667C10.6582 7.45836 10.7582 7.3167 10.7582 7.10004C10.7582 6.68337 10.4165 6.34167 9.99985 6.34167C9.58318 6.34167 9.24154 6.68337 9.24154 7.10004C9.24154 7.4417 8.9582 7.72504 8.61654 7.72504C8.27487 7.72504 7.99154 7.4417 7.99154 7.10004C7.99154 5.9917 8.89151 5.09167 9.99985 5.09167C11.1082 5.09167 12.0082 5.9917 12.0082 7.10004C12.0082 8.05004 11.3082 8.52502 11.0499 8.70002C10.7249 8.91669 10.6248 9.05837 10.6248 9.29171V9.46667C10.6248 9.81667 10.3415 10.0917 9.99985 10.0917Z" fill="#1B1B21"/>
<path d="M10 12.1666C9.65 12.1666 9.375 11.8833 9.375 11.5416C9.375 11.2 9.65833 10.9166 10 10.9166C10.3417 10.9166 10.625 11.2 10.625 11.5416C10.625 11.8833 10.35 12.1666 10 12.1666Z" fill="#1B1B21"/>
</svg>
