<svg width="20" height="20" viewBox="0 0 20 20" fill="none" xmlns="http://www.w3.org/2000/svg">
<path d="M14.3998 9.33332C14.2415 9.33332 14.0831 9.27496 13.9581 9.14996C13.7164 8.90829 13.7164 8.50829 13.9581 8.26663L16.6164 5.60829L13.9581 2.94996C13.7164 2.70829 13.7164 2.30829 13.9581 2.06663C14.1998 1.82496 14.5998 1.82496 14.8414 2.06663L17.9415 5.16665C18.0581 5.28332 18.1248 5.44163 18.1248 5.60829C18.1248 5.77496 18.0581 5.93332 17.9415 6.04998L14.8414 9.14996C14.7164 9.26663 14.5581 9.33332 14.3998 9.33332Z" fill="#1B1B21"/>
<path d="M17.5 6.23334H2.5C2.15833 6.23334 1.875 5.95 1.875 5.60834C1.875 5.26667 2.15833 4.98334 2.5 4.98334H17.5C17.8417 4.98334 18.125 5.26667 18.125 5.60834C18.125 5.95 17.8417 6.23334 17.5 6.23334Z" fill="#1B1B21"/>
<path d="M5.59998 18.125C5.44164 18.125 5.28334 18.0666 5.15834 17.9416L2.05831 14.8416C1.94164 14.725 1.875 14.5666 1.875 14.4C1.875 14.2333 1.94164 14.075 2.05831 13.9583L5.15834 10.8583C5.4 10.6166 5.8 10.6166 6.04167 10.8583C6.28333 11.1 6.28333 11.5 6.04167 11.7416L3.38333 14.4L6.04167 17.0583C6.28333 17.2999 6.28333 17.7 6.04167 17.9416C5.925 18.0666 5.76664 18.125 5.59998 18.125Z" fill="#1B1B21"/>
<path d="M17.5 15.0167H2.5C2.15833 15.0167 1.875 14.7333 1.875 14.3917C1.875 14.05 2.15833 13.7667 2.5 13.7667H17.5C17.8417 13.7667 18.125 14.05 18.125 14.3917C18.125 14.7333 17.8417 15.0167 17.5 15.0167Z" fill="#1B1B21"/>
</svg>
